<svg xmlns="http://www.w3.org/2000/svg" xmlns:xlink="http://www.w3.org/1999/xlink" id="Layer_1" data-name="Layer 1" viewBox="0 0 732 224.9" width="732"  height="224.9" ><defs><style>.cls-1{fill:#fff;}.cls-2{mask:url(#mask);}.cls-3{fill:#3468fc;}</style><mask id="mask" x="0" y="67.05" width="244.56" height="157.85" maskUnits="userSpaceOnUse"><g transform="translate(-9 -262.55)"><g id="b"><path id="a" class="cls-1" d="M9,329.61H253.56V487.45H9Z"/></g></g></mask></defs><title>hurblogo-freelogovectors.net</title><g class="cls-2"><path class="cls-3" d="M131.28,487.45c-86.37,0-125.63-59.93-122.06-149.14,0-6.61,6.07-8.69,16.77-8.69,10,0,18.2,1.38,17.85,8.71-2.14,71.07,20,116.38,87.44,116.38,68.18,0,90.31-46.35,87.45-116.38-.37-7.33,7.85-8.73,17.84-8.73,10.7,0,16.77,2.1,16.77,8.71,3.57,90.24-36.4,149.13-122.07,149.13" transform="translate(-9 -262.55)"/></g><path class="cls-3" d="M76.87,321.82l.36,51.7c0,7.43,7.62,9.56,16.33,9.2,11.24-.36,18.13-2.82,17.41-10.26q-1.78-18-3.14-36.13,11.73-.39,23.45-.35c9.8,0,16.6.52,23.06.92q-1.35,17.81-3.11,35.56c-.72,7.44,6.17,9.9,17.41,10.26,8.72.36,16.32-1.77,16.32-9.2l.38-51.7c1.09-20.89,2.9-31.52,5.07-47.8.73-7.09-5.08-10.64-16.69-11.34C163.93,262,156,264.1,156,271.53q.57,19.46-.15,38.93a475.34,475.34,0,0,1-49.4-.08q-.72-19.41-.15-38.85c0-7.44-8-9.56-17.76-8.85-11.62.71-17.42,4.25-16.69,11.34,2.17,16.28,4,26.91,5.07,47.8M302.22,446h32.63V380.87a29.92,29.92,0,0,1,7.68-5.09,23.32,23.32,0,0,1,10.17-2.17,13.86,13.86,0,0,1,9.67,3.31q3.61,3.33,3.62,12v57h32.63V379.63q0-15.56-8.27-24.37t-22.88-8.8a37.06,37.06,0,0,0-18,4.56,55.08,55.08,0,0,0-14.84,11.81l.19-53.57H302.22V446Zm188.55-30.26a26,26,0,0,1-7.06,4.56,22.47,22.47,0,0,1-9.32,1.86c-4.17,0-7.41-1.14-9.76-3.42s-3.54-6.31-3.54-12.13v-57H428.47v66.32q0,15.56,8.07,24.37t22.56,8.8a36.53,36.53,0,0,0,17.82-4.46,54.68,54.68,0,0,0,13.85-10.46V446h32.62V349.57H490.77v66.11Zm247.07-39.9A48.73,48.73,0,0,0,729.22,360,37.31,37.31,0,0,0,716.06,350a39.66,39.66,0,0,0-16.73-3.51,30.36,30.36,0,0,0-16.21,4.14,58.35,58.35,0,0,0-11.36,8.92l.19-50.26h-32.6v139.8l30.52-4.14a76.42,76.42,0,0,0,11,2.79A61.84,61.84,0,0,0,692,448.86a49.83,49.83,0,0,0,18.84-3.63,46.28,46.28,0,0,0,15.68-10.47,49.55,49.55,0,0,0,10.63-16.48A57.26,57.26,0,0,0,741,396.62a63.92,63.92,0,0,0-3.16-20.83m-35.08,41.87q-5.61,7.36-16,7.36Q678,425,672,421.07V378.58a33,33,0,0,1,7.08-4.77A20.36,20.36,0,0,1,688.2,372c6.65,0,11.68,2.3,15.08,6.94s5.1,11.09,5.1,19.38q0,12-5.62,19.38m-87.93-67.77a30.66,30.66,0,0,0-8.87-1.34q-13.94,0-22,14.6V349.36H553.6V446H584V391c6.72-15.85,26.73-13.44,30.84-12.71Z" transform="translate(-9 -262.55)"/></svg>